<?xml version="1.0" encoding="UTF-8"?>
<svg xmlns="http://www.w3.org/2000/svg" xmlns:xlink="http://www.w3.org/1999/xlink" width="95.598" height="82.676" viewBox="0 0 95.598 82.676">
  <defs>
    <clipPath id="clip-path">
      <path id="Контур_28" data-name="Контур 28" d="M0,0H95.6V-82.676H0Z" fill="none"></path>
    </clipPath>
  </defs>
  <g id="Сгруппировать_21" data-name="Сгруппировать 21" transform="translate(0 82.676)" clip-path="url(#clip-path)">
    <path id="Контур_25" data-name="Контур 25" d="M8.2-28.143H0v8.2H8.2Zm9.812-4.526v12.728H30.7v-.04h.04V-32.669ZM30.8-19.985c-.021,0-.042,0-.063,0v.04H30.7m-12.688,0H8.2v9.8h9.812Z" fill="#1c9741"></path>
    <g id="Сгруппировать_19" data-name="Сгруппировать 19" transform="translate(95.598 -21.682)">
      <path id="Контур_26" data-name="Контур 26" d="M0,0V-23.965a3.507,3.507,0,0,0-3.511-3.511,3.508,3.508,0,0,0-3.512,3.511V-7.681L-16.876,4.148a1.762,1.762,0,0,1-2.59.12l-1.4-1.4A1.754,1.754,0,0,1-21.035.57L-16.854-5a3.517,3.517,0,0,0-.7-4.916,3.516,3.516,0,0,0-4.916.7L-28.793-.79A14.071,14.071,0,0,0-31.6,7.637v12.29a1.761,1.761,0,0,0,1.756,1.755H-15.4a1.729,1.729,0,0,0,1.679-1.273,6.573,6.573,0,0,1,1.141-2.381L-1.152,3.292A5.274,5.274,0,0,0,0,0M-53.35,4.148-63.2-7.681V-23.965a3.507,3.507,0,0,0-3.512-3.511,3.507,3.507,0,0,0-3.511,3.511V0a5.274,5.274,0,0,0,1.152,3.292l11.423,14.736a6.557,6.557,0,0,1,1.141,2.381,1.72,1.72,0,0,0,1.679,1.273H-40.38a1.761,1.761,0,0,0,1.756-1.755V7.637A14.071,14.071,0,0,0-41.433-.79l-6.321-8.427a3.515,3.515,0,0,0-4.915-.7A3.516,3.516,0,0,0-53.372-5L-49.191.57a1.754,1.754,0,0,1-.165,2.294l-1.4,1.4a1.745,1.745,0,0,1-2.59-.12" fill="#1c9741"></path>
    </g>
    <g id="Сгруппировать_20" data-name="Сгруппировать 20" transform="translate(81.735 -74.231)">
      <path id="Контур_27" data-name="Контур 27" d="M0,0-19.382-8.076a4.837,4.837,0,0,0-1.86-.369,4.862,4.862,0,0,0-1.865.369L-42.49,0a4.841,4.841,0,0,0-2.988,4.472c0,20.039,11.559,33.889,22.36,38.391a4.86,4.86,0,0,0,3.726,0c8.651-3.6,22.37-16.051,22.37-38.391A4.847,4.847,0,0,0,0,0" fill="#1c9741"></path>
    </g>
  </g>
</svg>
