<?xml version="1.0" encoding="UTF-8"?>
<svg xmlns="http://www.w3.org/2000/svg" xmlns:xlink="http://www.w3.org/1999/xlink" id="Сгруппировать_28" data-name="Сгруппировать 28" width="109.372" height="79.683" viewBox="0 0 109.372 79.683">
  <defs>
    <clipPath id="clip-path">
      <path id="Контур_34" data-name="Контур 34" d="M0,43.123H109.372V-36.56H0Z" transform="translate(0 36.56)" fill="#e73e20"></path>
    </clipPath>
  </defs>
  <g id="Сгруппировать_27" data-name="Сгруппировать 27" transform="translate(0 0)" clip-path="url(#clip-path)">
    <g id="Сгруппировать_26" data-name="Сгруппировать 26" transform="translate(29.689 0)">
      <path id="Контур_32" data-name="Контур 32" d="M41.1,10.781H39.857V3.309C39.857-3.661,24.417-9.14,5-9.14S-29.866-3.661-29.866,3.309v7.471h-1.247a3.734,3.734,0,0,0-3.733,3.736V26.966A3.736,3.736,0,0,0-31.112,30.7h1.247V55.6a4.98,4.98,0,0,0,4.98,4.98v4.98a4.98,4.98,0,0,0,4.98,4.98h4.98a4.981,4.981,0,0,0,4.98-4.98v-4.98H19.936v4.98a4.98,4.98,0,0,0,4.98,4.98H29.9a4.982,4.982,0,0,0,4.98-4.98v-4.98h1A3.929,3.929,0,0,0,39.857,56.6V30.7H41.1a3.737,3.737,0,0,0,3.736-3.736V14.516A3.736,3.736,0,0,0,41.1,10.781M-17.416,53.113a4.982,4.982,0,0,1-4.98-4.98,4.98,4.98,0,0,1,4.98-4.98,4.98,4.98,0,0,1,4.98,4.98,4.982,4.982,0,0,1-4.98,4.98m2.491-17.432a4.98,4.98,0,0,1-4.98-4.98V10.781a4.98,4.98,0,0,1,4.98-4.98H24.916a4.981,4.981,0,0,1,4.98,4.98V30.7a4.981,4.981,0,0,1-4.98,4.98Zm42.33,17.432a4.98,4.98,0,1,1,4.98-4.98,4.981,4.981,0,0,1-4.98,4.98" transform="translate(34.846 9.14)" fill="#e73e20"></path>
    </g>
    <path id="Контур_33" data-name="Контур 33" d="M9.588-10.872H0v9.588H9.588Zm11.469-5.292V-1.287H35.888v-.046h.048V-16.164ZM36.008-1.337c-.024,0-.048,0-.072,0v.046h-.048m-14.832,0H9.585V10.167H21.056Z" transform="translate(0 60.617)" fill="#e73e20"></path>
  </g>
</svg>
