<?xml version="1.0" encoding="UTF-8"?>
<svg xmlns="http://www.w3.org/2000/svg" xmlns:xlink="http://www.w3.org/1999/xlink" id="Сгруппировать_2058" data-name="Сгруппировать 2058" width="148.114" height="148.112" viewBox="0 0 148.114 148.112">
  <defs>
    <clipPath id="clip-path">
      <path id="Контур_1530" data-name="Контур 1530" d="M0,53.07H148.112V-95.042H0Z" transform="translate(0 95.042)" fill="none"></path>
    </clipPath>
    <clipPath id="clip-path-2">
      <path id="Контур_1532" data-name="Контур 1532" d="M0-20.986A74.056,74.056,0,0,0,74.056,53.07h0a74.057,74.057,0,0,0,74.058-74.056h0A74.056,74.056,0,0,0,74.056-95.042h0A74.055,74.055,0,0,0,0-20.986" transform="translate(0 95.042)" fill="none"></path>
    </clipPath>
    <linearGradient id="linear-gradient" x1="-0.223" y1="0.513" x2="1.374" y2="0.513" gradientUnits="objectBoundingBox">
      <stop offset="0" stop-color="#ff3832"></stop>
      <stop offset="0.1" stop-color="#df334a"></stop>
      <stop offset="0.2" stop-color="#ba2f60"></stop>
      <stop offset="0.3" stop-color="#942c74"></stop>
      <stop offset="0.4" stop-color="#6d2987"></stop>
      <stop offset="0.5" stop-color="#482b97"></stop>
      <stop offset="0.6" stop-color="#3546a5"></stop>
      <stop offset="0.7" stop-color="#205fb3"></stop>
      <stop offset="0.8" stop-color="#0b77c1"></stop>
      <stop offset="0.9" stop-color="#008cd0"></stop>
      <stop offset="1" stop-color="#0096d8"></stop>
    </linearGradient>
    <clipPath id="clip-path-4">
      <path id="Контур_2013" data-name="Контур 2013" d="M111.574,230.721,494.3,8.4,815.071,196.517,1163.555,667.09H0Z" transform="translate(0 -8.398)" fill="none"></path>
    </clipPath>
    <clipPath id="clip-path-5">
      <rect id="Прямоугольник_103" data-name="Прямоугольник 103" width="102128.93" height="102128.93" fill="none"></rect>
    </clipPath>
    <linearGradient id="linear-gradient-2" x1="0.391" y1="1.67" x2="4.069" y2="1.67" gradientUnits="objectBoundingBox">
      <stop offset="0" stop-color="#fff"></stop>
      <stop offset="0.1" stop-color="#e3e3e3"></stop>
      <stop offset="0.2" stop-color="#c8c8c8"></stop>
      <stop offset="0.3" stop-color="#adadad"></stop>
      <stop offset="0.4" stop-color="#929292"></stop>
      <stop offset="0.5" stop-color="#777"></stop>
      <stop offset="0.6" stop-color="#5c5c5c"></stop>
      <stop offset="0.7" stop-color="#424242"></stop>
      <stop offset="0.8" stop-color="#272727"></stop>
      <stop offset="0.9" stop-color="#0d0d0d"></stop>
      <stop offset="1"></stop>
    </linearGradient>
    <clipPath id="clip-path-6">
      <rect id="Прямоугольник_104" data-name="Прямоугольник 104" width="1163.555" height="671.779" fill="none"></rect>
    </clipPath>
    <clipPath id="clip-path-8">
      <rect id="Прямоугольник_106" data-name="Прямоугольник 106" width="122.006" height="139.225" fill="none"></rect>
    </clipPath>
  </defs>
  <g id="Сгруппировать_1271" data-name="Сгруппировать 1271" transform="translate(0 0)" clip-path="url(#clip-path)">
    <g id="Сгруппировать_1270" data-name="Сгруппировать 1270" transform="translate(0 0)">
      <path id="Контур_1529" data-name="Контур 1529" d="M26.535,53.07a74.056,74.056,0,0,0,74.056-74.056A74.056,74.056,0,0,0,26.535-95.042,74.056,74.056,0,0,0-47.521-20.986,74.056,74.056,0,0,0,26.535,53.07" transform="translate(47.521 95.042)" fill="#9a9b9f"></path>
    </g>
  </g>
  <g id="Сгруппировать_1273" data-name="Сгруппировать 1273" transform="translate(0 0)" clip-path="url(#clip-path-2)">
    <g id="Сгруппировать_1272" data-name="Сгруппировать 1272" transform="translate(56.141 -71.857) rotate(38)">
      <path id="Контур_1531" data-name="Контур 1531" d="M0,91.187,116.715,0,207.9,116.715,91.187,207.9Z" transform="translate(0 0)" fill="url(#linear-gradient)"></path>
    </g>
  </g>
  <g id="Сгруппировать_1283" data-name="Сгруппировать 1283" transform="translate(0 0)" clip-path="url(#clip-path-2)">
    <g id="Сгруппировать_1282" data-name="Сгруппировать 1282" transform="translate(-420.799 56.673)" opacity="0.5">
      <g id="Сгруппировать_1281" data-name="Сгруппировать 1281">
        <g id="Группа_масок_7" data-name="Группа масок 7" clip-path="url(#clip-path-4)">
          <g id="Сгруппировать_1276" data-name="Сгруппировать 1276" transform="translate(-50644.441 -50972.25)">
            <g id="Сгруппировать_1275" data-name="Сгруппировать 1275" clip-path="url(#clip-path-5)">
              <g id="Сгруппировать_1274" data-name="Сгруппировать 1274" transform="translate(51065.246 50915.57)">
                <path id="Контур_1533" data-name="Контур 1533" d="M0-95.042H148.113V53.071H0Z" transform="translate(0 95.042)" fill="url(#linear-gradient-2)"></path>
              </g>
            </g>
          </g>
          <g id="Сгруппировать_1279" data-name="Сгруппировать 1279" transform="translate(0 -13.087)">
            <g id="Сгруппировать_1278" data-name="Сгруппировать 1278" clip-path="url(#clip-path-6)">
              <g id="Сгруппировать_1277" data-name="Сгруппировать 1277" transform="translate(13.704 13.311)">
                <path id="Контур_1534" data-name="Контур 1534" d="M-261.228,218.86,385.111,592.024,865.568,314.632,219.229-58.532Z" transform="translate(261.228 58.532)" fill="#fff"></path>
              </g>
            </g>
          </g>
        </g>
      </g>
    </g>
  </g>
  <g id="Сгруппировать_1288" data-name="Сгруппировать 1288" transform="translate(0 0)" clip-path="url(#clip-path)">
    <g id="Сгруппировать_1287" data-name="Сгруппировать 1287" transform="translate(13.053 -0.232)" opacity="0.8">
      <g id="Сгруппировать_1286" data-name="Сгруппировать 1286">
        <g id="Сгруппировать_1285" data-name="Сгруппировать 1285" clip-path="url(#clip-path-8)">
          <g id="Сгруппировать_1284" data-name="Сгруппировать 1284" transform="translate(14.025 10.909)">
            <path id="Контур_1536" data-name="Контур 1536" d="M33.665,16.833c.019,36.61-44.062,79.78-46.978,79.78-2.754,0-46.978-43.17-46.978-79.78A46.978,46.978,0,0,1-13.312-30.145,46.985,46.985,0,0,1,33.665,16.833" transform="translate(60.29 30.145)" fill="#ff422e"></path>
          </g>
        </g>
      </g>
    </g>
  </g>
  <g id="Сгруппировать_1289" data-name="Сгруппировать 1289" transform="translate(48.119 32.11)">
    <path id="Контур_1538" data-name="Контур 1538" d="M0,4.885V45.668H30.876V4.885L15.422-8.748Z" transform="translate(0 8.748)" fill="none" stroke="#fff" stroke-width="0.817"></path>
  </g>
  <g id="Сгруппировать_1290" data-name="Сгруппировать 1290" transform="translate(48.21 62.246)">
    <path id="Контур_1539" data-name="Контур 1539" d="M0,0H30.694" fill="none" stroke="#fff" stroke-width="0.817"></path>
  </g>
  <g id="Сгруппировать_1292" data-name="Сгруппировать 1292" transform="translate(0 0)" clip-path="url(#clip-path)">
    <g id="Сгруппировать_1291" data-name="Сгруппировать 1291" transform="translate(56.968 44.261)">
      <path id="Контур_1540" data-name="Контур 1540" d="M4.722,6.382V-4.84a6.589,6.589,0,0,0-6.589-6.589A6.589,6.589,0,0,0-8.456-4.84V6.382Z" transform="translate(8.456 11.429)" fill="#fff"></path>
    </g>
  </g>
  <g id="Сгруппировать_1293" data-name="Сгруппировать 1293" transform="translate(57.375 61.609)">
    <path id="Контур_1542" data-name="Контур 1542" d="M0,0V24.375" fill="none" stroke="#fff" stroke-width="0.817"></path>
  </g>
  <g id="Сгруппировать_1294" data-name="Сгруппировать 1294" transform="translate(69.739 61.609)">
    <path id="Контур_1543" data-name="Контур 1543" d="M0,0V24.375" fill="none" stroke="#fff" stroke-width="0.817"></path>
  </g>
  <g id="Сгруппировать_1295" data-name="Сгруппировать 1295" transform="translate(57.28 74.341)">
    <path id="Контур_1544" data-name="Контур 1544" d="M0,0H12.543" fill="none" stroke="#fff" stroke-width="0.817"></path>
  </g>
  <g id="Сгруппировать_1296" data-name="Сгруппировать 1296" transform="translate(57.28 82.645)">
    <path id="Контур_1545" data-name="Контур 1545" d="M0,0H12.363" fill="none" stroke="#fff" stroke-width="0.817"></path>
  </g>
  <g id="Сгруппировать_1297" data-name="Сгруппировать 1297" transform="translate(57.28 70.19)">
    <path id="Контур_1546" data-name="Контур 1546" d="M0,0H12.543" fill="none" stroke="#fff" stroke-width="0.817"></path>
  </g>
  <g id="Сгруппировать_1298" data-name="Сгруппировать 1298" transform="translate(57.28 66.038)">
    <path id="Контур_1547" data-name="Контур 1547" d="M0,0H12.543" fill="none" stroke="#fff" stroke-width="0.817"></path>
  </g>
  <g id="Сгруппировать_1299" data-name="Сгруппировать 1299" transform="translate(57.28 78.493)">
    <path id="Контур_1548" data-name="Контур 1548" d="M0,0H12.543" fill="none" stroke="#fff" stroke-width="0.817"></path>
  </g>
  <g id="Сгруппировать_1301" data-name="Сгруппировать 1301" transform="translate(0 0)" clip-path="url(#clip-path)">
    <g id="Сгруппировать_1300" data-name="Сгруппировать 1300" transform="translate(78.968 60.992)">
      <path id="Контур_1549" data-name="Контур 1549" d="M0,0H0A11.112,11.112,0,0,1,9.593,5.64l6.308,10.9a18.377,18.377,0,0,0,8.428,7.627l2.5,1.111" fill="none" stroke="#fff" stroke-width="2.452"></path>
    </g>
  </g>
</svg>
