<?xml version="1.0" encoding="UTF-8"?>
<svg xmlns="http://www.w3.org/2000/svg" xmlns:xlink="http://www.w3.org/1999/xlink" id="Сгруппировать_31" data-name="Сгруппировать 31" width="84.664" height="77.992" viewBox="0 0 84.664 77.992">
  <defs>
    <clipPath id="clip-path">
      <path id="Контур_37" data-name="Контур 37" d="M0,45.377H84.664V-32.615H0Z" transform="translate(0 32.615)" fill="#2b7ab7"></path>
    </clipPath>
  </defs>
  <g id="Сгруппировать_30" data-name="Сгруппировать 30" transform="translate(0 0)" clip-path="url(#clip-path)">
    <path id="Контур_35" data-name="Контур 35" d="M10.519-16.277H0V-5.758H10.519ZM23.1-22.083V-5.76H39.375v-.05h.053V-22.083Zm16.4,16.268c-.026,0-.053,0-.079,0v.05h-.053M23.1-5.76H10.517V6.806H23.1Z" transform="translate(0 47.268)" fill="#2b7ab7"></path>
    <g id="Сгруппировать_29" data-name="Сгруппировать 29" transform="translate(35.919 0)">
      <path id="Контур_36" data-name="Контур 36" d="M24.107,0H-10.014a7.315,7.315,0,0,0-7.313,7.313V70.68a7.314,7.314,0,0,0,7.313,7.313H24.107A7.314,7.314,0,0,0,31.42,70.68V7.313A7.315,7.315,0,0,0,24.107,0M7.045,73.119a4.875,4.875,0,1,1,4.876-4.876,4.87,4.87,0,0,1-4.876,4.876M24.107,56.667a1.833,1.833,0,0,1-1.827,1.827H-8.187a1.833,1.833,0,0,1-1.827-1.827V9.14A1.833,1.833,0,0,1-8.187,7.313H22.28A1.833,1.833,0,0,1,24.107,9.14Z" transform="translate(17.327 0)" fill="#2b7ab7"></path>
    </g>
  </g>
</svg>
