<?xml version="1.0" encoding="utf-8"?>
<!-- Generator: Adobe Illustrator 25.0.1, SVG Export Plug-In . SVG Version: 6.00 Build 0)  -->
<svg version="1.1" id="Ebene_1" xmlns="http://www.w3.org/2000/svg" xmlns:xlink="http://www.w3.org/1999/xlink" x="0px" y="0px"
	 viewBox="0 0 256.6 293.6" style="enable-background:new 0 0 256.6 293.6;" xml:space="preserve">
<style type="text/css">
	.st0{fill:url(#SVGID_2_);}
	.st1{fill:#FFFFFF;}
	.st2{fill:#003782;}
</style>
<g>
	<g>
		
			<linearGradient id="SVGID_2_" gradientUnits="userSpaceOnUse" x1="-28.5427" y1="36.6994" x2="191.0151" y2="256.2571" gradientTransform="matrix(1 0 0 -1 0 296)">
			<stop  offset="0" style="stop-color:#E42032"/>
			<stop  offset="0.23" style="stop-color:#E42032"/>
			<stop  offset="0.48" style="stop-color:#622181"/>
			<stop  offset="0.72" style="stop-color:#0086CB"/>
			<stop  offset="0.95" style="stop-color:#0086CB"/>
		</linearGradient>
		<path id="SVGID_1_" class="st0" d="M117.7,0.3L11.6,9.6c0,0-11.6,1-11.6,12.7v113v34.6v113c0,0,0,11.7,11.6,10.7l125.6-11
			c9.8-0.9,18.9-3.5,27.6-8c8.6-4.5,16.1-10.3,22.5-17.3s11.5-15,15.2-24.1c3.7-9,5.6-18.4,5.6-28.3V189c0-13.5-3.4-25.4-10.2-35.8
			c-6.8-10.4-15.7-17.1-21.2-21c0,0-5.2-2.5-2.5-5.9c2.7-3.3,6.9-10.8,10-18.9c3.1-8.2,4.6-16.8,4.6-25.8V65.5
			c0-9.8-1.9-18.9-5.6-27.3c-3.7-8.3-8.8-15.5-15.2-21.4S154,6.4,145.3,3.4C138.6,1.2,131.5,0,124.1,0C122,0,119.9,0.1,117.7,0.3"/>
	</g>
</g>
<g>
	<g>
		<path class="st1" d="M28.4,68.5c0,0-3,0.3-3,3.2v45.1c0,0,0,3,3,2.7L194,105.1c0,0,3-0.3,3-3.2v-45c0,0,0-3-3-2.7L28.4,68.5z"/>
		<path class="st2" d="M172.5,98.6c0,0.6,0.4,0.9,0.9,0.8l6.5-0.6c0.6-0.1,0.9-0.4,0.9-1V70.2l7.9-0.7c0.6,0,0.9-0.6,0.9-1v-5.6
			c0-0.6-0.3-0.9-0.9-0.8l-24.1,2.1c-0.6,0.1-0.9,0.4-0.9,1v5.6c0,0.5,0.4,0.9,0.9,0.8l7.9-0.7L172.5,98.6L172.5,98.6z M148.1,73
			c1.1-0.1,2.1,0,3.3,0.5c1.3,0.5,2.2,2.2,2.2,4.4v2.3c0,1.5-0.4,2.8-1.1,3.7c-0.8,1-1.5,1.6-2.2,1.8c-0.7,0.2-1.5,0.4-2.2,0.4
			l-3.5,0.3V73.3L148.1,73z M153.5,100.2c0.3,0.6,0.6,0.9,1.1,0.8l6.2-0.5c0.6-0.1,0.9-0.4,0.9-1l-4.7-9.3c1.8-1.5,3.2-3.5,3.8-5
			c0.3-0.8,0.5-1.5,0.7-2.3c0.3-1.6,0.3-2,0.3-2.3V76v-0.7c-0.2-1.2-0.6-3.8-2.6-6.2c-0.7-0.8-1.5-1.5-2.4-2.1
			c-1.8-1.2-5-1.9-8.7-1.6l-10.8,0.9c-0.5,0-0.9,0.5-0.9,1v34.2c0,0.6,0.5,0.9,0.9,0.8l6.4-0.6c0.6-0.1,0.9-0.4,0.9-1v-7.1l3.5-0.3
			c0.4,0,1.1-0.1,2.1-0.3L153.5,100.2z M121,91.5l-7.8,0.7l3.9-13.4L121,91.5z M113.1,68.6c-0.6,0.1-1,0.4-1.2,1.1l-10.5,35
			c0,0.6,0.3,0.9,0.9,0.8l6.3-0.5c0.5,0,0.9-0.4,1.1-1l1.2-4.2l12.3-1.1l1.3,4c0.2,0.6,0.6,0.9,1.1,0.8l6.3-0.5
			c0.6-0.1,0.9-0.4,0.9-1l-10.5-33.2c-0.2-0.6-0.5-0.9-1.1-0.9L113.1,68.6z M71.8,72.9c-0.2-0.4-0.5-0.6-1-0.6l-6.4,0.6
			c-0.5,0-0.9,0.5-0.9,1V108c0,0.6,0.5,0.9,0.9,0.8l6.4-0.6c0.6-0.1,0.9-0.4,0.9-1V88.8L77,99.1c0.4,0.6,0.8,0.9,1.3,0.9l4.7-0.4
			c0.5,0,1-0.4,1.3-1.1l5.3-11.2v18.5c0,0.6,0.3,0.9,0.9,0.8L97,106c0.5,0,0.9-0.5,0.9-1V70.9c0-0.6-0.4-0.9-0.9-0.8l-6.4,0.6
			c-0.5,0-0.8,0.3-1,0.8l-8.9,19L71.8,72.9z M32.9,108.3c1.4,0.9,3.2,1.6,5.4,2.1c2.2,0.4,3.8,0.6,4.7,0.7c0.9,0,1.7,0,2.3-0.1
			c4.8-0.4,8.6-2.2,10.4-4c0.9-0.9,1.6-2,2.2-3.1c1.1-2.3,1.2-3.5,1.2-4.7c0-2.4-0.6-4.4-1.9-5.9c-1.3-1.5-2.8-2.6-4.6-3.2
			S49,89,47.3,88.6c-1.8-0.3-3.3-0.8-4.6-1.3S40.8,86,40.8,85c0-2.3,1.7-3.2,5.1-3.5c2.3-0.2,4.6-0.1,6.6,0.2l0.7,0.1
			c0.3,0,0.6-0.2,0.8-0.6l1.9-4.5c0.1-0.3,0.2-0.6,0.2-0.7c0-0.4-0.2-0.6-0.5-0.7c-3-1.2-6.4-1.6-10.2-1.2c-3.8,0.3-6.8,1.5-9.2,3.5
			s-3.6,4.8-3.6,8.3c0,2.2,0.6,4,1.9,5.4c1.3,1.4,2.8,2.4,4.6,3s3.6,1.1,5.3,1.4c1.8,0.4,3.3,0.9,4.6,1.6c1.3,0.6,1.9,1.5,1.9,2.6
			c0,0.6-0.1,1.1-0.3,1.5c-0.3,0.8-1.9,1.9-4.9,2.1c-3.2,0.3-6.2-0.3-9.1-1.8c-0.2-0.1-0.4-0.1-0.6-0.1c-0.3,0-0.6,0.2-0.8,0.6
			l-2.5,4.8c-0.1,0.2-0.2,0.4-0.2,0.6C32.5,107.9,32.6,108.1,32.9,108.3"/>
		<path class="st1" d="M28.4,128.4c0,0-3,0.3-3,3.2v45.1c0,0,0,3,3,2.7l109.8-9.5c0,0,3-0.3,3-3.2v-45.1c0,0,0-3-3-2.7L28.4,128.4z"
			/>
		<path class="st2" d="M110.8,129.9c-0.3-0.6-0.7-0.9-1.2-0.8l-6.2,0.5c-0.6,0.1-0.9,0.4-0.9,1c6.9,14.1,10.8,21.9,11.4,23.2v10
			c0,0.6,0.5,0.9,0.9,0.8l6.4-0.6c0.6-0.1,0.9-0.4,0.9-1v-10c0.6-1.4,4.4-9.8,11.4-25.2c0-0.6-0.3-0.9-0.9-0.8l-6.2,0.5
			c-0.5,0-1,0.4-1.2,1l-7.3,15.8L110.8,129.9z M83.3,166.4c0,0.6,0.5,0.9,0.9,0.8l6.5-0.6c0.6-0.1,0.9-0.4,0.9-1V138l7.9-0.7
			c0.6,0,0.9-0.6,0.9-1v-5.6c0-0.6-0.3-0.9-0.9-0.8L75.4,132c-0.6,0.1-0.9,0.4-0.9,1v5.6c0,0.5,0.4,0.9,0.9,0.8l7.9-0.7V166.4z
			 M62.4,168.2c0,0.5,0.5,0.9,0.9,0.8l6.4-0.6c0.6-0.1,0.9-0.4,0.9-1v-34.2c0-0.6-0.3-0.9-0.9-0.8l-6.4,0.6c-0.5,0-0.9,0.5-0.9,1
			V168.2z M33.1,159c0,1.9,0.2,3.7,1.4,6.2c0.6,1.3,1.4,2.3,2.4,3.2c2,1.8,5.7,3,10.4,2.6c3.7-0.3,6.8-1.1,9.3-2.3
			c0.4-0.2,0.6-0.5,0.6-0.8s-0.3-2.2-1-5.6c-0.2-0.3-0.5-0.5-0.8-0.5l-1.3,0.5c-1.8,0.6-3.4,1-4.8,1.1c-2,0.2-3.8-0.1-5.4-1
			c-1.7-0.8-2.5-2.3-2.5-4.5v-9.7c0-2.2,0.8-3.8,2.5-4.9c1.6-1.1,3.4-1.7,5.4-1.9c1.5-0.2,3.1,0,4.8,0.3l1.3,0.3
			c0.4-0.1,0.7-0.3,0.8-0.6c0.6-3.5,1-5.5,1-5.8s-0.2-0.5-0.6-0.7c-2.6-0.8-5.7-1.1-9.3-0.8c-4.7,0.4-8.4,2.2-10.4,4.4
			c-1,1.1-1.8,2.3-2.4,3.6c-1.2,2.7-1.4,4.6-1.4,6.5V159z"/>
		<path class="st1" d="M27.8,188.3c0,0-2.4,0.2-2.4,3.2v45.1c0,0,0,3,2.4,2.8l226.4-19.7c0,0,2.4-0.2,2.4-3.2v-45.1c0,0,0-3-2.4-2.8
			L27.8,188.3z"/>
		<path class="st2" d="M239,192.2c-0.5,0-0.9,0.6-0.9,1v5c0,0.6,0.3,0.9,0.9,0.8l3.6-0.3v7.1c-1.5,0.5-3.2,0.9-5,1
			c-1.7,0.1-3.2-0.3-4.5-1.2s-1.9-2.4-1.9-4.3v-9.8c0-2.2,0.8-3.8,2.5-4.9c1.6-1.1,3.4-1.7,5.4-1.9c1.5-0.2,3.1,0,4.8,0.3l1.3,0.3
			c0.4-0.1,0.7-0.3,0.8-0.6c0.6-3.5,1-5.5,1-5.8s-0.2-0.5-0.6-0.7c-2.6-0.8-5.7-1.1-9.3-0.8c-4.7,0.4-8.4,2.2-10.4,4.4
			c-1,1.1-1.8,2.3-2.4,3.6c-1.2,2.7-1.4,4.6-1.4,6.5v10.5c0,1.9,0.3,3.7,1.4,6.2c0.6,1.3,1.4,2.3,2.4,3.2c2,1.8,5.7,3,10.4,2.6
			l0.8-0.1c4-0.3,7.5-1.3,10.6-3c0.3-0.3,0.5-0.5,0.5-0.8v-18.2c0-0.5-0.4-0.9-0.9-0.8L239,192.2z M205.9,188.1
			c1.1-0.1,2.1,0,3.3,0.5c1.3,0.5,2.2,2.2,2.2,4.4v2.3c0,1.5-0.4,2.8-1.1,3.7c-0.8,1-1.5,1.6-2.2,1.8s-1.5,0.4-2.2,0.4l-3.5,0.3
			v-13.1L205.9,188.1z M211.4,215.3c0.3,0.6,0.6,0.9,1.1,0.8l6.2-0.5c0.6-0.1,0.9-0.4,0.9-1l-4.7-9.3c1.8-1.5,3.2-3.5,3.8-5
			c0.3-0.8,0.5-1.5,0.7-2.4c0.3-1.6,0.3-2,0.3-2.3V191v-0.7c-0.2-1.2-0.6-3.8-2.6-6.2c-0.7-0.8-1.5-1.5-2.4-2.1
			c-1.8-1.2-5-1.9-8.7-1.6l-10.8,0.9c-0.5,0-0.9,0.5-0.9,1v34.2c0,0.6,0.5,0.9,0.9,0.8l6.4-0.6c0.6-0.1,0.9-0.4,0.9-1v-7.1l3.5-0.3
			c0.5,0,1.1-0.1,2.1-0.3L211.4,215.3z M174.2,205.3l10.9-1c0.5,0,0.9-0.6,0.9-1v-5.6c0-0.6-0.3-0.9-0.9-0.8l-10.9,1v-7l13.5-1.2
			c0.5,0,0.9-0.6,0.9-1v-5.6c0-0.6-0.3-0.9-0.9-0.8l-20.9,1.8c-0.5,0-0.9,0.5-0.9,1v34.2c0,0.6,0.5,0.9,0.9,0.8l20.9-1.8
			c0.6-0.1,0.9-0.4,0.9-1v-5.6c0-0.5-0.4-0.9-0.9-0.8l-13.5,1.2V205.3z M144,200.9v-7.4l2.9-0.2c3.2-0.3,4.8,0.8,4.8,3.3
			s-1.6,3.9-4.8,4.1L144,200.9z M144,214.6v-7.5l3.3-0.3c1.1-0.1,2,0,3.3,0.3s2.2,1.4,2.2,3c0,2.5-1.9,3.9-5.5,4.3L144,214.6z
			 M148.1,221.7c1.8-0.2,3.4-0.4,4.8-0.9c2.8-0.8,4.5-1.7,5.8-3.2c1.3-1.4,1.8-2.4,2.2-4c0.2-0.8,0.3-1.4,0.3-1.8c0-0.4,0-0.8,0-1.4
			c0-0.8,0-1.3-0.5-2.9c-0.3-0.8-0.6-1.4-1-2c-0.8-1.1-2.6-2.2-5-2.4c3.5-1,5.2-4,5.2-9c0-3.7-1.5-6.2-4-7.4
			c-2.5-1.1-5.2-1.5-8.6-1.2l-10.8,0.9c-0.5,0-0.9,0.5-0.9,1v34.2c0,0.6,0.5,0.9,0.9,0.8L148.1,221.7z M104.1,190.2
			c-0.2-0.4-0.5-0.6-1-0.6l-6.4,0.6c-0.5,0-0.9,0.5-0.9,1v34.2c0,0.6,0.5,0.9,0.9,0.8l6.4-0.6c0.6-0.1,0.9-0.4,0.9-1v-18.5l5.2,10.3
			c0.4,0.6,0.8,0.9,1.3,0.9l4.7-0.4c0.5,0,1-0.4,1.3-1.1l5.3-11.2V223c0,0.6,0.3,0.9,0.9,0.8l6.5-0.6c0.5,0,0.9-0.5,0.9-1V188
			c0-0.6-0.5-0.9-0.9-0.8l-6.4,0.6c-0.5,0-0.8,0.3-1,0.8l-8.9,19L104.1,190.2z M80.5,215.1l-7.8,0.7l3.9-13.4L80.5,215.1z
			 M72.5,192.2c-0.6,0.1-1,0.4-1.2,1.1l-10.5,35c0,0.6,0.3,0.9,0.9,0.8l6.3-0.5c0.5,0,0.9-0.4,1.1-1l1.2-4.2l12.3-1.1l1.3,4
			c0.2,0.6,0.6,0.9,1.1,0.8l6.3-0.5c0.6-0.1,0.9-0.4,0.9-1l-10.5-33.2c-0.2-0.6-0.5-0.9-1.1-0.9L72.5,192.2z M41.7,209.8v-7.4
			l2.9-0.2c3.2-0.3,4.8,0.8,4.8,3.3s-1.6,3.9-4.8,4.1L41.7,209.8z M41.7,223.5V216l3.3-0.3c1.1-0.1,2,0,3.3,0.3s2.2,1.4,2.2,3
			c0,2.5-1.9,3.9-5.5,4.3L41.7,223.5z M45.7,230.6c1.8-0.2,3.4-0.4,4.8-0.9c2.8-0.8,4.5-1.7,5.8-3.2c1.3-1.4,1.8-2.4,2.2-4
			c0.2-0.8,0.3-1.4,0.3-1.8c0-0.4,0-0.8,0-1.4c0-0.8,0-1.3-0.5-2.9c-0.3-0.8-0.6-1.4-1-2c-0.8-1.1-2.6-2.2-5-2.4c3.5-1,5.2-4,5.2-9
			c0-3.7-1.5-6.2-4-7.4c-2.5-1.1-5.2-1.5-8.6-1.2l-10.8,0.9c-0.5,0-0.9,0.5-0.9,1v34.2c0,0.6,0.5,0.9,0.9,0.8L45.7,230.6z"/>
	</g>
</g>
</svg>
