<?xml version="1.0" encoding="UTF-8"?>
<svg xmlns="http://www.w3.org/2000/svg" xmlns:xlink="http://www.w3.org/1999/xlink" width="119.732" height="76.498" viewBox="0 0 119.732 76.498">
  <defs>
    <clipPath id="clip-path">
      <path id="Контур_31" data-name="Контур 31" d="M0,44.508H119.732v-76.5H0Z" transform="translate(0 31.99)" fill="none"></path>
    </clipPath>
  </defs>
  <g id="Сгруппировать_24" data-name="Сгруппировать 24" transform="translate(0 0)" clip-path="url(#clip-path)">
    <g id="Сгруппировать_23" data-name="Сгруппировать 23" transform="translate(32.307 0)">
      <path id="Контур_29" data-name="Контур 29" d="M41.328,19.075A10.928,10.928,0,1,1,52.257,8.146,10.937,10.937,0,0,1,41.328,19.075M3.08,24.539A19.124,19.124,0,1,1,22.205,5.413,19.115,19.115,0,0,1,3.08,24.539M-10.034,30h1.418a26.892,26.892,0,0,0,11.7,2.733A26.948,26.948,0,0,0,14.775,30h1.418A19.677,19.677,0,0,1,35.864,49.674v4.919a8.2,8.2,0,0,1-8.195,8.195H-21.51A8.2,8.2,0,0,1-29.7,54.593V49.674A19.677,19.677,0,0,1-10.034,30m38.2-2.288a10.893,10.893,0,0,1,7.7-3.176H46.793A10.937,10.937,0,0,1,57.721,35.467v5.464A5.458,5.458,0,0,1,52.257,46.4H41A25.041,25.041,0,0,0,28.164,27.714" transform="translate(29.705 13.71)" fill="#a03482"></path>
    </g>
    <path id="Контур_30" data-name="Контур 30" d="M10.519-7.89H0V2.629H10.519Zm12.583-5.8V2.629H39.375v-.05h.053L50.865-13.694Zm16.4,16.266c-.026,0-.053.007-.079.007v.05h-.053m-16.273,0H10.517V15.2H23.1Z" transform="translate(0 57.445)" fill="#a03482"></path>
  </g>
</svg>
