<?xml version="1.0" encoding="UTF-8"?>
<svg xmlns="http://www.w3.org/2000/svg" xmlns:xlink="http://www.w3.org/1999/xlink" id="Сгруппировать_2164" data-name="Сгруппировать 2164" width="146.91" height="165.682" viewBox="0 0 146.91 165.682">
  <defs>
    <clipPath id="clip-path">
      <path id="Контур_1454" data-name="Контур 1454" d="M0-21.588A73.454,73.454,0,0,0,73.454,51.866h0A73.455,73.455,0,0,0,146.91-21.588h0A73.454,73.454,0,0,0,73.454-95.042h0A73.453,73.453,0,0,0,0-21.588" transform="translate(0 95.042)" fill="none"></path>
    </clipPath>
    <linearGradient id="linear-gradient" x1="-0.158" y1="0.545" x2="1.354" y2="0.545" gradientUnits="objectBoundingBox">
      <stop offset="0" stop-color="#ff3832"></stop>
      <stop offset="0.1" stop-color="#df334a"></stop>
      <stop offset="0.2" stop-color="#ba2f60"></stop>
      <stop offset="0.3" stop-color="#942c74"></stop>
      <stop offset="0.4" stop-color="#6d2987"></stop>
      <stop offset="0.5" stop-color="#482b97"></stop>
      <stop offset="0.6" stop-color="#3546a5"></stop>
      <stop offset="0.7" stop-color="#205fb3"></stop>
      <stop offset="0.8" stop-color="#0b77c1"></stop>
      <stop offset="0.9" stop-color="#008cd0"></stop>
      <stop offset="1" stop-color="#0096d8"></stop>
    </linearGradient>
    <clipPath id="clip-path-3">
      <path id="Контур_2012" data-name="Контур 2012" d="M75.241,248.562,489.365,8.16,808.147,191.825,1154.1,661.865H0Z" transform="translate(0 -8.16)" fill="none"></path>
    </clipPath>
    <clipPath id="clip-path-4">
      <rect id="Прямоугольник_100" data-name="Прямоугольник 100" width="101298.609" height="101298.609" fill="none"></rect>
    </clipPath>
    <linearGradient id="linear-gradient-2" x1="0.265" y1="1.519" x2="3.576" y2="1.519" gradientUnits="objectBoundingBox">
      <stop offset="0" stop-color="#fff"></stop>
      <stop offset="0.1" stop-color="#e3e3e3"></stop>
      <stop offset="0.2" stop-color="#c8c8c8"></stop>
      <stop offset="0.3" stop-color="#adadad"></stop>
      <stop offset="0.4" stop-color="#929292"></stop>
      <stop offset="0.5" stop-color="#777"></stop>
      <stop offset="0.6" stop-color="#5c5c5c"></stop>
      <stop offset="0.7" stop-color="#424242"></stop>
      <stop offset="0.8" stop-color="#272727"></stop>
      <stop offset="0.9" stop-color="#0d0d0d"></stop>
      <stop offset="1"></stop>
    </linearGradient>
    <clipPath id="clip-path-5">
      <rect id="Прямоугольник_101" data-name="Прямоугольник 101" width="1154.096" height="666.318" fill="none"></rect>
    </clipPath>
    <clipPath id="clip-path-6">
      <path id="Контур_1479" data-name="Контур 1479" d="M0,58.494H146.908V-107.188H0Z" transform="translate(0 107.188)" fill="none"></path>
    </clipPath>
  </defs>
  <g id="Сгруппировать_1191" data-name="Сгруппировать 1191" transform="translate(0 18.774)" clip-path="url(#clip-path)">
    <g id="Сгруппировать_1190" data-name="Сгруппировать 1190" transform="translate(55.684 -90.047) rotate(38)">
      <path id="Контур_1453" data-name="Контур 1453" d="M0,90.446,115.766,0l102,130.559L102,221.006Z" transform="translate(0 0)" fill="url(#linear-gradient)"></path>
    </g>
  </g>
  <g id="Сгруппировать_1214" data-name="Сгруппировать 1214" transform="translate(0 18.774)" clip-path="url(#clip-path)">
    <g id="Сгруппировать_1200" data-name="Сгруппировать 1200" transform="translate(-423.375 19.696)" opacity="0.5">
      <g id="Сгруппировать_1199" data-name="Сгруппировать 1199">
        <g id="Группа_масок_6" data-name="Группа масок 6" clip-path="url(#clip-path-3)">
          <g id="Сгруппировать_1194" data-name="Сгруппировать 1194" transform="translate(-50226.703 -50521.324)">
            <g id="Сгруппировать_1193" data-name="Сгруппировать 1193" clip-path="url(#clip-path-4)">
              <g id="Сгруппировать_1192" data-name="Сгруппировать 1192" transform="translate(50650.082 50482.852)">
                <path id="Контур_1455" data-name="Контур 1455" d="M0-107.188H146.909V58.494H0Z" transform="translate(0 107.188)" fill="url(#linear-gradient-2)"></path>
              </g>
            </g>
          </g>
          <g id="Сгруппировать_1197" data-name="Сгруппировать 1197" transform="translate(0 -12.613)">
            <g id="Сгруппировать_1196" data-name="Сгруппировать 1196" clip-path="url(#clip-path-5)">
              <g id="Сгруппировать_1195" data-name="Сгруппировать 1195" transform="translate(13.593 13.202)">
                <path id="Контур_1456" data-name="Контур 1456" d="M-265.108,193.219l641.084,370.13L852.527,288.212,211.443-81.918Z" transform="translate(265.108 81.918)" fill="#fff"></path>
              </g>
            </g>
          </g>
        </g>
      </g>
    </g>
    <g id="Сгруппировать_1201" data-name="Сгруппировать 1201" transform="translate(37.309 87.704)">
      <path id="Контур_1457" data-name="Контур 1457" d="M1.043,0a4.161,4.161,0,0,0,.314,2.235A4.18,4.18,0,0,0,3.272,4.088S-2.183,10.667-1.9,17.822c.048,1.212,7.217,2.172,9.551.255s.944-6.642.349-6.916-4.6,1.23-4.6,1.23S5.509,5.11,5.572,4.727,5.639,1.159,5.254.932" transform="translate(1.912)" fill="#51ade2"></path>
    </g>
    <g id="Сгруппировать_1202" data-name="Сгруппировать 1202" transform="translate(37.039 82.074)">
      <path id="Контур_1458" data-name="Контур 1458" d="M3.471,1.795c0-.015,0-.031,0-.046V1.738c0-.014,0-.026,0-.039,0-.032,0-.065-.009-.1s-.008-.063-.012-.1-.011-.063-.017-.094-.012-.057-.019-.087v0s0,0,0,0l-.023-.09c-.009-.029-.017-.057-.028-.087s-.019-.057-.029-.085S3.3,1,3.293.974,3.282.949,3.276.939v0a.075.075,0,0,1,0-.011L3.248.878C3.24.863,3.233.847,3.223.832S3.208.8,3.2.786L3.179.748A.272.272,0,0,1,3.157.713L3.134.679,3.111.643,3.091.614A.188.188,0,0,1,3.075.592h0l0-.008A.206.206,0,0,1,3.047.555L3.024.527,3,.5,2.982.478,2.961.453C2.953.444,2.945.436,2.937.428A.3.3,0,0,0,2.916.405L2.894.384,2.873.362,2.851.342,2.829.322,2.808.3h0l0,0L2.784.283,2.761.265,2.74.246A.221.221,0,0,1,2.716.229L2.693.212,2.67.2C2.662.19,2.655.184,2.645.18A.2.2,0,0,0,2.622.164.133.133,0,0,0,2.6.149.134.134,0,0,0,2.573.133L2.551.119A.169.169,0,0,0,2.528.107L2.5.093,2.482.081-4.2-3.289a1.738,1.738,0,0,1,.193.117,0,0,0,0,0,0,0,1.678,1.678,0,0,1,.173.141h0a1.917,1.917,0,0,1,.155.162l0,0c.048.057.093.117.136.181,0,0,0,0,0,0a2.137,2.137,0,0,1,.117.2s0,0,0,0c.036.07.068.142.1.216,0,0,0,0,0,.006.028.071.053.145.074.221l0,.015c.022.079.04.158.056.24a.014.014,0,0,0,0,.008c.014.08.025.162.034.246a.117.117,0,0,0,0,.023c.006.079.011.159.012.241v.028c0,.082,0,.164-.008.246,0,.009,0,.017,0,.026-.006.087-.015.175-.029.263,0,0,0,.008,0,.011-.014.091-.032.184-.054.275a.006.006,0,0,0,0,0c-.023.094-.049.187-.079.281v0c-.031.093-.065.185-.1.278,0,0,0,0,0,0-.039.093-.08.184-.127.275a3.8,3.8,0,0,1-.269.444v0a3.458,3.458,0,0,1-.311.38l0,0a3.071,3.071,0,0,1-.343.312l0,0a2.743,2.743,0,0,1-.34.224l-.053.029a2.235,2.235,0,0,1-.332.145c-.019.008-.037.012-.056.019a2.03,2.03,0,0,1-.339.08c-.034,0-.068.009-.1.012l-.083.006q-.06,0-.121,0c-.026,0-.053,0-.077,0-.045,0-.088-.009-.131-.015l-.063-.008a1.551,1.551,0,0,1-.19-.046h0L.8,4.212a1.7,1.7,0,0,0,.339.065l.012,0c.032,0,.068,0,.1,0a1.77,1.77,0,0,0,.2,0,.174.174,0,0,0,.028,0h.025c.039,0,.076-.019.113-.025A1.6,1.6,0,0,0,1.826,4.2l.037-.008c.036-.012.07-.031.105-.045s.1-.031.142-.054c.017-.008.034-.02.051-.029s.032-.012.049-.02l.048-.028.048-.028.048-.031c.015-.009.031-.02.046-.031a.069.069,0,0,0,.017-.012l0,0A.118.118,0,0,0,2.438,3.9c.012-.008.025-.017.037-.026l.036-.028.037-.028c.009-.009.02-.017.031-.026l.029-.025.031-.028.029-.026L2.7,3.688l.009-.009h0l.017-.015a.211.211,0,0,1,.026-.026l.025-.028c.009-.008.017-.017.025-.025s.015-.019.023-.026.015-.019.023-.026L2.868,3.5a5351.844,5351.844,0,0,1,.043-.053c.008-.008.014-.017.022-.026s.014-.017.02-.026l.006-.009a0,0,0,0,0,0,0,.162.162,0,0,0,.012-.017l.02-.026.019-.028a.313.313,0,0,1,.02-.028l.019-.028a.269.269,0,0,0,.017-.028c.006-.011.012-.02.019-.029s.012-.019.019-.029.011-.019.017-.029a2164.169,2164.169,0,0,1,.034-.059c0-.011.011-.02.015-.031l0,0v0l0,0s0,0,0,0l.015-.029L3.2,2.99,3.22,2.96l.014-.031L3.248,2.9a.309.309,0,0,0,.015-.032c0-.009.008-.019.011-.028l0,0s0,0,0,0,.009-.022.014-.034l.014-.034c0-.012.008-.025.012-.036s.009-.025.012-.036a.348.348,0,0,0,.012-.037c0-.011.008-.023.012-.036v0a.373.373,0,0,0,.012-.039c0-.014.008-.026.011-.039a.387.387,0,0,0,.011-.04c0-.015.008-.029.012-.045a.38.38,0,0,1,.011-.045.012.012,0,0,1,0-.008v0c0-.011,0-.022.008-.034s.006-.029.009-.045L3.44,2.26,3.449,2.2c0-.008,0-.014,0-.022s0,0,0,0v0a.21.21,0,0,0,0-.031c0-.019,0-.039.006-.057s.006-.065.008-.1,0-.065,0-.1,0-.065,0-.1" transform="translate(6.36 3.289)" fill="#2d2d82"></path>
    </g>
    <g id="Сгруппировать_1203" data-name="Сгруппировать 1203" transform="translate(35.684 81.881)">
      <path id="Контур_1459" data-name="Контур 1459" d="M1.24.068A1.811,1.811,0,0,1,1.9.675a2.439,2.439,0,0,1,.354.907,3.26,3.26,0,0,1,.008,1.084A3.685,3.685,0,0,1,1.9,3.79a3.488,3.488,0,0,1-.686.934,2.745,2.745,0,0,1-.849.566,2.025,2.025,0,0,1-.892.158,1.678,1.678,0,0,1-.824-.275,1.88,1.88,0,0,1-.6-.66,2.531,2.531,0,0,1-.291-.895A3.329,3.329,0,0,1-2.222,2.6a3.728,3.728,0,0,1,.346-1.04,3.51,3.51,0,0,1,.623-.88A2.86,2.86,0,0,1-.469.1,2.147,2.147,0,0,1,.393-.124,1.686,1.686,0,0,1,1.24.068" transform="translate(2.273 0.125)" fill="#51ade2"></path>
    </g>
    <g id="Сгруппировать_1204" data-name="Сгруппировать 1204" transform="translate(50.163 127.428)">
      <path id="Контур_1460" data-name="Контур 1460" d="M.232,1.583s2.674,13,3.785,16.769c.989,9.123.6,13.129,3.552,12.256s3.622-3.289,3.186-12.4c-.714-1.986.442-14.729.519-15.462A6.668,6.668,0,0,0,10.237-1.4c-.986-1.147-5.98-1.5-5.98-1.5L-.425,1.817" transform="translate(0.425 2.901)" fill="#51ade2"></path>
    </g>
    <g id="Сгруппировать_1205" data-name="Сгруппировать 1205" transform="translate(44.392 125.601)">
      <path id="Контур_1461" data-name="Контур 1461" d="M.388.4S-1.244,14.314-.53,18.792s2.1,15,2.1,15,2.942.869,4.6.034-.464-13.391.116-16.79S7.342,7.16,8.016,6.324,9.18-.729,9.18-.729Z" transform="translate(0.711 0.729)" fill="#51ade2"></path>
    </g>
    <g id="Сгруппировать_1206" data-name="Сгруппировать 1206" transform="translate(43.478 96.898)">
      <path id="Контур_1462" data-name="Контур 1462" d="M2.519.112s-7.135-2.153-7.135,4.77.635,20.793.635,22.823S-3.342,32.36.99,33.2s12.244.833,12.633,0c.887-1.911.292-3.3.292-5.087s.836-10.931.836-12.244,2.683-6.452.739-8.274S5.5.636,5.5.636Z" transform="translate(4.616 0.205)" fill="#1c70b7"></path>
    </g>
    <g id="Сгруппировать_1207" data-name="Сгруппировать 1207" transform="translate(43.852 82.306)">
      <path id="Контур_1463" data-name="Контур 1463" d="M.685,1.644s-4.877,10.52.833,11.63,8.675-1.289,10.605-4.8S16.886.628,10.012-2.548C2.716-4.757.685,1.644.685,1.644" transform="translate(1.255 3.012)" fill="#51ade2"></path>
    </g>
    <g id="Сгруппировать_1208" data-name="Сгруппировать 1208" transform="translate(49.552 93.331)">
      <path id="Контур_1464" data-name="Контур 1464" d="M.146,1.255l-.414,5.7S.595,9.83,4.811,7.992s3.6-2.8,3.6-2.8L6.884-2.3Z" transform="translate(0.268 2.299)" fill="#51ade2"></path>
    </g>
    <g id="Сгруппировать_1209" data-name="Сгруппировать 1209" transform="translate(43.194 83.415)">
      <path id="Контур_1465" data-name="Контур 1465" d="M3.471,1.795c0-.015,0-.031,0-.048V1.738c0-.014,0-.026,0-.039,0-.032,0-.065-.009-.1s-.008-.063-.012-.1-.011-.063-.017-.094-.012-.057-.019-.087v0s0,0,0,0l-.023-.09c-.009-.029-.017-.057-.028-.087s-.019-.057-.029-.085S3.3,1,3.293.974,3.282.949,3.276.939v0a.075.075,0,0,1,0-.011L3.248.878C3.24.863,3.233.847,3.223.832S3.208.8,3.2.786L3.179.748A.272.272,0,0,1,3.157.713L3.134.679,3.111.643,3.091.614A.188.188,0,0,1,3.075.592h0a.034.034,0,0,0,0-.008A.206.206,0,0,1,3.047.555L3.024.527,3,.5,2.982.478,2.961.453C2.953.444,2.945.436,2.937.428A.3.3,0,0,0,2.916.405L2.894.384,2.873.362,2.851.342,2.829.322,2.808.3h0l0,0L2.784.283,2.761.265,2.74.246A.221.221,0,0,1,2.716.229L2.693.212,2.67.2C2.662.19,2.655.184,2.645.18L2.622.163,2.6.147,2.573.133,2.551.119A.169.169,0,0,0,2.528.107L2.5.093,2.482.081-4.2-3.289a1.738,1.738,0,0,1,.193.117,0,0,0,0,0,0,0,1.678,1.678,0,0,1,.173.141h0a1.917,1.917,0,0,1,.155.162l0,0a1.959,1.959,0,0,1,.134.181l0,0a2.137,2.137,0,0,1,.117.2s0,0,0,0c.036.07.068.142.1.216,0,0,0,0,0,.006.028.071.053.145.074.221l0,.015c.022.079.04.158.056.24a.014.014,0,0,0,0,.008c.014.08.025.162.034.246a.117.117,0,0,0,0,.023c.006.079.011.159.012.241v.028c0,.082,0,.164-.008.246,0,.009,0,.017,0,.026-.006.087-.015.175-.029.263,0,0,0,.008,0,.011-.014.091-.032.184-.054.275a.006.006,0,0,0,0,0c-.023.094-.049.187-.079.281v0c-.031.093-.065.185-.1.278,0,0,0,0,0,0-.039.093-.08.184-.127.275a3.8,3.8,0,0,1-.269.444v0a3.458,3.458,0,0,1-.311.38l0,0a3.071,3.071,0,0,1-.343.312l0,0a2.579,2.579,0,0,1-.34.224l-.053.029a2.235,2.235,0,0,1-.332.145c-.019.008-.037.012-.056.019a2.03,2.03,0,0,1-.339.08c-.034,0-.068.009-.1.012l-.083.006q-.06,0-.121,0c-.026,0-.053,0-.077,0-.045,0-.088-.009-.131-.015l-.063-.008a1.551,1.551,0,0,1-.19-.046h0L.8,4.212a1.818,1.818,0,0,0,.339.065l.012,0c.032,0,.068,0,.1,0a1.77,1.77,0,0,0,.2,0,.174.174,0,0,0,.028,0h.025c.039,0,.076-.019.113-.025A1.907,1.907,0,0,0,1.826,4.2l.037-.008c.036-.012.07-.031.105-.045s.1-.031.142-.054c.017-.008.034-.02.051-.029s.032-.012.049-.022l.048-.026.048-.028.048-.031c.015-.009.031-.02.046-.031a.069.069,0,0,0,.017-.012l0,0A.118.118,0,0,0,2.438,3.9c.012-.008.025-.017.037-.026l.036-.028.037-.028c.009-.009.02-.017.031-.026l.029-.025.031-.028.029-.026L2.7,3.688l.009-.009h0l.017-.015a.211.211,0,0,1,.026-.026l.025-.028c.009-.008.017-.017.025-.025s.015-.019.023-.026.015-.019.023-.026L2.868,3.5a5351.844,5351.844,0,0,1,.043-.053c.008-.008.014-.017.022-.026s.014-.017.02-.026l.006-.009a0,0,0,0,0,0,0,.162.162,0,0,0,.012-.017l.02-.026.019-.028.02-.028.019-.028a.269.269,0,0,0,.017-.028c.006-.011.012-.02.019-.029s.012-.019.019-.029.011-.019.017-.029a2164.169,2164.169,0,0,1,.034-.059c0-.011.011-.02.015-.031l0,0v0l0,0s0,0,0,0l.015-.029L3.2,2.99A.269.269,0,0,1,3.22,2.96l.014-.031L3.248,2.9a.309.309,0,0,0,.015-.032c0-.009.008-.019.011-.028l0,0s0,0,0,0,.009-.022.014-.034l.014-.034c0-.012.008-.025.012-.036A.348.348,0,0,0,3.33,2.69a.24.24,0,0,0,.012-.036c0-.011.008-.023.012-.036v0a.373.373,0,0,0,.012-.039c0-.014.008-.026.011-.039a.387.387,0,0,0,.011-.04c0-.015.008-.029.012-.045a.38.38,0,0,1,.011-.045.012.012,0,0,1,0-.008v0c0-.011,0-.022.008-.034s.006-.029.009-.045L3.44,2.26,3.449,2.2c0-.008,0-.014,0-.022s0,0,0,0v0a.21.21,0,0,0,0-.031c0-.019,0-.039.006-.057s0-.065.008-.1,0-.065,0-.1,0-.065,0-.1" transform="translate(6.36 3.289)" fill="#2d2d82"></path>
    </g>
    <g id="Сгруппировать_1210" data-name="Сгруппировать 1210" transform="translate(41.839 83.222)">
      <path id="Контур_1466" data-name="Контур 1466" d="M1.24.068A1.811,1.811,0,0,1,1.9.675a2.439,2.439,0,0,1,.354.907,3.26,3.26,0,0,1,.008,1.084A3.685,3.685,0,0,1,1.9,3.79a3.488,3.488,0,0,1-.686.934,2.745,2.745,0,0,1-.849.566,2.025,2.025,0,0,1-.892.158,1.667,1.667,0,0,1-.822-.275,1.87,1.87,0,0,1-.6-.66,2.531,2.531,0,0,1-.291-.895A3.329,3.329,0,0,1-2.222,2.6a3.728,3.728,0,0,1,.346-1.04,3.51,3.51,0,0,1,.623-.88A2.86,2.86,0,0,1-.469.1,2.147,2.147,0,0,1,.393-.124,1.686,1.686,0,0,1,1.24.068" transform="translate(2.273 0.125)" fill="#51ade2"></path>
    </g>
    <g id="Сгруппировать_1211" data-name="Сгруппировать 1211" transform="translate(48.494 86.4)">
      <path id="Контур_1467" data-name="Контур 1467" d="M1.437,0A4.258,4.258,0,0,1,3.6,3.444,5.2,5.2,0,0,1,1.9,7.732c-.216.119.5,2.013.717,2.467s1.7,6.651,1.7,6.651l.195.512-2.057-.121L-1.192,11.3-2.633,6.732l1.417-2.147a12.314,12.314,0,0,0,1.029-2A15.174,15.174,0,0,1,1.437,0" transform="translate(2.633 0)" fill="#0084c6"></path>
    </g>
    <g id="Сгруппировать_1212" data-name="Сгруппировать 1212" transform="translate(48.109 91.569)">
      <path id="Контур_1468" data-name="Контур 1468" d="M4.027,4.888s2.918-1.006,4.019-.767,1.482,5.068-.425,6.515C4.842,12.745-3.93,12.553-4.6,11.307S-7.38-7.711-7.38-7.711s1.006-2.635,2.731-.24S.621,4.792,1,5.367s3.023-.479,3.023-.479" transform="translate(7.38 8.957)" fill="#51ade2"></path>
    </g>
    <g id="Сгруппировать_1213" data-name="Сгруппировать 1213" transform="translate(47.89 85.099)">
      <path id="Контур_1469" data-name="Контур 1469" d="M0,1.929A4.261,4.261,0,0,0,1.683-.754c.1-1.532-.91-2.73,0-2.778s2.969.6,3.448,2.1S4.782,3.9,4.031,4.373.342,5.187.15,3.87A10.317,10.317,0,0,1,0,1.929" transform="translate(0.003 3.535)" fill="#51ade2"></path>
    </g>
  </g>
  <g id="Сгруппировать_1223" data-name="Сгруппировать 1223" transform="translate(0 0)" clip-path="url(#clip-path-6)">
    <g id="Сгруппировать_1215" data-name="Сгруппировать 1215" transform="translate(116.208 81.983)">
      <path id="Контур_1471" data-name="Контур 1471" d="M8.109,4.046c0-.017.006-.029.008-.046L8.1,4.006c-.125-1-.547-1.3-.94-1.357L-11.473-7.275c-.872-.465-2.173.271-2.9,1.643s-.617,2.864.255,3.329L4.614,7.679l.009-.019c.291.192.73.249,1.425-.127.008,0,.036-.017.077-.042a3.593,3.593,0,0,0,.864-.73A4.766,4.766,0,0,0,8.1,4.1l.017-.012c0-.015-.006-.022-.008-.037m-.147.071A4.4,4.4,0,0,1,6.932,6.632a3.169,3.169,0,0,1-.87.716l-.008,0a1.3,1.3,0,0,1-1.342.139L7.176,2.867c.427.11.7.519.785,1.25" transform="translate(14.859 7.414)" fill="#0f2e93"></path>
    </g>
    <g id="Сгруппировать_1216" data-name="Сгруппировать 1216" transform="translate(116.442 81.983)">
      <path id="Контур_1472" data-name="Контур 1472" d="M7.82.63C7.089-.744,5.788-1.48,4.914-1.015h0l-18.389,9.8a.9.9,0,0,0-.294.158l-.051.026,0,0a1.743,1.743,0,0,0-.5,1.153l-.017-.006c0,.017.006.029.008.046s-.006.022-.008.037l.017.012A4.777,4.777,0,0,0-13.2,12.878a3.6,3.6,0,0,0,.864.73l.077.042a1.717,1.717,0,0,0,1.073.257l.017.034.063-.034a.845.845,0,0,0,.393-.21L7.564,3.959C8.437,3.494,8.551,2,7.82.63m-19.1,13.1a1.759,1.759,0,0,1-.986-.266l-.008,0a3.169,3.169,0,0,1-.87-.716,4.4,4.4,0,0,1-1.031-2.515,1.66,1.66,0,0,1,.459-1.076Z" transform="translate(14.33 1.154)" fill="#0f2e93"></path>
    </g>
    <g id="Сгруппировать_1217" data-name="Сгруппировать 1217" transform="translate(118.47 92.317)">
      <path id="Контур_1473" data-name="Контур 1473" d="M0,0,.019.014c.006,0,.011,0,.019.006Z" fill="#b7875e"></path>
    </g>
    <g id="Сгруппировать_1218" data-name="Сгруппировать 1218" transform="translate(116.559 92.057)">
      <path id="Контур_1474" data-name="Контур 1474" d="M1.363,1.228l-.009,0a4.31,4.31,0,0,0-1.92-3.2c-1.6-.872-1.875.583-1.921.983L-2.5-1s0,.034,0,.056,0,.051,0,.051l.009,0a4.323,4.323,0,0,0,1.921,3.2c1.6.872,1.875-.583,1.92-.983l.009,0s0-.034,0-.056,0-.051,0-.051" transform="translate(2.497 2.251)" fill="#3ab5e5"></path>
    </g>
    <g id="Сгруппировать_1219" data-name="Сгруппировать 1219" transform="translate(118.244 66.197)">
      <path id="Контур_1475" data-name="Контур 1475" d="M5.989,0C-4.794,2.892-3.826,10.7-3.826,10.7A4.015,4.015,0,0,0-6.715,6.827a3.361,3.361,0,0,1-.578,4.428,8.068,8.068,0,0,0-3.656,7.687A5.826,5.826,0,0,0-6.8,24.353h0l5.9,2.6c-.688-.748,3.745-2.484,3.745-2.484l-.029,0A6.805,6.805,0,0,0,4.657,23.4C8.234,20.437,5.8,14.913,3.2,8.75S5.989,0,5.989,0" transform="translate(10.975 0)" fill="#3ab5e5"></path>
    </g>
    <g id="Сгруппировать_1220" data-name="Сгруппировать 1220" transform="translate(120.659 77.188)">
      <path id="Контур_1476" data-name="Контур 1476" d="M4.666,3.262C4.34-.131,1.813-.791,1.74-3.42A12.342,12.342,0,0,0,.316-.072C.166-1.627-.373-4.044-2.251-5.01a12.565,12.565,0,0,0-2.578-.968,4.438,4.438,0,0,1,.682.45l-.343-.226a2.643,2.643,0,0,1,.635,3.53C-5.075.324-7.624,1.358-8.4,3.823c-.015.04-.031.077-.043.117s-.036.082-.046.128a1.227,1.227,0,0,0-.037.3A4.258,4.258,0,0,0-7.891,6.9l7,3.084S-.95,9.173,1.193,8.229c0,0,3.8-1.574,3.473-4.966" transform="translate(8.55 5.978)" fill="#178fcf"></path>
    </g>
    <g id="Сгруппировать_1221" data-name="Сгруппировать 1221" transform="translate(107.334 64.305)">
      <path id="Контур_1477" data-name="Контур 1477" d="M.638.063a1.657,1.657,0,0,0-1.5,0,.456.456,0,0,0,0,.864,1.657,1.657,0,0,0,1.5,0,.456.456,0,0,0,0-.864" transform="translate(1.169 0.115)" fill="#0f2e93"></path>
    </g>
    <g id="Сгруппировать_1222" data-name="Сгруппировать 1222" transform="translate(107.334 58.79)">
      <path id="Контур_1478" data-name="Контур 1478" d="M.638.063a1.657,1.657,0,0,0-1.5,0,.457.457,0,0,0,0,.866,1.657,1.657,0,0,0,1.5,0,.457.457,0,0,0,0-.866" transform="translate(1.169 0.115)" fill="#0f2e93"></path>
    </g>
  </g>
  <path id="Контур_1480" data-name="Контур 1480" d="M69.44-63.244h2.118v-5.515H69.44Z" transform="translate(37.895 128.159)" fill="#0f2e93"></path>
  <g id="Сгруппировать_1234" data-name="Сгруппировать 1234" transform="translate(0 0)" clip-path="url(#clip-path-6)">
    <g id="Сгруппировать_1224" data-name="Сгруппировать 1224" transform="translate(99.518 46.924)">
      <path id="Контур_1481" data-name="Контур 1481" d="M.234.041C.011.012-.209-.027-.428-.075-.023,10.379,8,13.881,8.084,13.918l.063-.621C8.067,13.261.822,9.776.234.041" transform="translate(0.428 0.075)" fill="#0f2e93"></path>
    </g>
    <g id="Сгруппировать_1225" data-name="Сгруппировать 1225" transform="translate(25.355 22.952)">
      <path id="Контур_1482" data-name="Контур 1482" d="M2.624,15.685c31.386,15.089,54.423,6.988,54.423,6.988L49.4-28.742S-28.76.6,2.624,15.685" transform="translate(4.808 28.742)" fill="#0f2e93"></path>
    </g>
    <g id="Сгруппировать_1226" data-name="Сгруппировать 1226" transform="translate(79.566 22.952)">
      <path id="Контур_1483" data-name="Контур 1483" d="M0,0C.982,50.432,7.644,51.415,7.644,51.415L22.7,42.724l-2.286-18C4.957,18.263,0,0,0,0" fill="#3ab5e5"></path>
    </g>
    <g id="Сгруппировать_1227" data-name="Сгруппировать 1227" transform="translate(56.868 22.952)">
      <path id="Контур_1484" data-name="Контур 1484" d="M0,24.337l15.055-8.693S21.717,6.969,22.7-44.6A161.6,161.6,0,0,1,2.286,3.7Z" transform="translate(0 44.596)" fill="#3ab5e5"></path>
    </g>
    <g id="Сгруппировать_1228" data-name="Сгруппировать 1228" transform="translate(16.638 48.299)">
      <path id="Контур_1485" data-name="Контур 1485" d="M0,7.285c15.437,7.489,40.23,22.952,40.23,22.952C40.671,29.443,42.517,9.6,42.517,9.6L2.286-13.349C2.056-12.083,0,7.285,0,7.285" transform="translate(0 13.349)" fill="#1e78c1"></path>
    </g>
    <g id="Сгруппировать_1229" data-name="Сгруппировать 1229" transform="translate(15.283 0)">
      <path id="Контур_1486" data-name="Контур 1486" d="M8.492,0C5.586,24.965-15.561,51.417-15.561,51.417.334,58.991,26.891,76.142,26.891,76.142c20.722-30.871,21.832-53.19,21.832-53.19C19.25,14.536,8.492,0,8.492,0" transform="translate(15.561)" fill="#178fcf"></path>
    </g>
    <g id="Сгруппировать_1230" data-name="Сгруппировать 1230" transform="translate(79.566 22.952)">
      <path id="Контур_1487" data-name="Контур 1487" d="M0,0S3.084,16.091,23.336,24.943C23.336,24.943,3.121,12.207,0,0" fill="#178fcf"></path>
    </g>
    <g id="Сгруппировать_1231" data-name="Сгруппировать 1231" transform="translate(79.566 22.952)">
      <path id="Контур_1488" data-name="Контур 1488" d="M0,0C9.86,28.352,23.336,24.943,23.336,24.943,10.811,20,0,0,0,0" transform="translate(0 0)" fill="#178fcf"></path>
    </g>
    <g id="Сгруппировать_1232" data-name="Сгруппировать 1232" transform="translate(29.413 83.772)">
      <path id="Контур_1489" data-name="Контур 1489" d="M.638.063a1.66,1.66,0,0,0-1.5,0,.456.456,0,0,0,0,.864,1.65,1.65,0,0,0,1.5,0,.456.456,0,0,0,0-.864" transform="translate(1.17 0.115)" fill="#0f2e93"></path>
    </g>
    <g id="Сгруппировать_1233" data-name="Сгруппировать 1233" transform="translate(29.413 78.256)">
      <path id="Контур_1490" data-name="Контур 1490" d="M.638.063a1.65,1.65,0,0,0-1.5,0,.456.456,0,0,0,0,.864,1.66,1.66,0,0,0,1.5,0,.456.456,0,0,0,0-.864" transform="translate(1.17 0.116)" fill="#0f2e93"></path>
    </g>
  </g>
  <path id="Контур_1492" data-name="Контур 1492" d="M19.029-50.65h2.118v-5.515H19.029Z" transform="translate(10.384 135.032)" fill="#0f2e93"></path>
  <g id="Сгруппировать_1237" data-name="Сгруппировать 1237" transform="translate(0 0)" clip-path="url(#clip-path-6)">
    <g id="Сгруппировать_1235" data-name="Сгруппировать 1235" transform="translate(12.106 74.673)">
      <path id="Контур_1493" data-name="Контур 1493" d="M.638.063a1.66,1.66,0,0,0-1.5,0,.457.457,0,0,0,0,.866,1.66,1.66,0,0,0,1.5,0,.457.457,0,0,0,0-.866" transform="translate(1.17 0.115)" fill="#0f2e93"></path>
    </g>
    <g id="Сгруппировать_1236" data-name="Сгруппировать 1236" transform="translate(12.106 69.158)">
      <path id="Контур_1494" data-name="Контур 1494" d="M.638.063a1.65,1.65,0,0,0-1.5,0,.456.456,0,0,0,0,.864,1.66,1.66,0,0,0,1.5,0,.456.456,0,0,0,0-.864" transform="translate(1.17 0.116)" fill="#0f2e93"></path>
    </g>
  </g>
  <path id="Контур_1496" data-name="Контур 1496" d="M7.832-56.536H9.95v-5.515H7.832Z" transform="translate(4.274 131.82)" fill="#0f2e93"></path>
  <g id="Сгруппировать_1243" data-name="Сгруппировать 1243" transform="translate(0 0)" clip-path="url(#clip-path-6)">
    <g id="Сгруппировать_1238" data-name="Сгруппировать 1238" transform="translate(47.299 74.205)">
      <path id="Контур_1497" data-name="Контур 1497" d="M2.613,0c.768,13.21-7.279,15.9-7.359,15.921l-.042.672c.085-.026,8.749-2.566,7.953-16.25Z" transform="translate(4.788)" fill="#0f2e93"></path>
    </g>
    <g id="Сгруппировать_1239" data-name="Сгруппировать 1239" transform="translate(31.481 66.514)">
      <path id="Контур_1498" data-name="Контур 1498" d="M.008,4.95l-.023.6C.079,5.543,9.55,4.556,11.4-8.7l-.6-.371C9.017,3.713.1,4.942.008,4.95" transform="translate(0.015 9.07)" fill="#0f2e93"></path>
    </g>
    <g id="Сгруппировать_1240" data-name="Сгруппировать 1240" transform="translate(14.104 54.847)">
      <path id="Контур_1499" data-name="Контур 1499" d="M2.789,0c.839,11.934-7.812,16.091-7.9,16.128l.062.623c.091-.04,9.344-4.073,8.475-16.428Z" transform="translate(5.11)" fill="#0f2e93"></path>
    </g>
    <g id="Сгруппировать_1241" data-name="Сгруппировать 1241" transform="translate(45.749 92.66)">
      <path id="Контур_1500" data-name="Контур 1500" d="M.638.063a1.66,1.66,0,0,0-1.5,0,.456.456,0,0,0,0,.864,1.65,1.65,0,0,0,1.5,0,.456.456,0,0,0,0-.864" transform="translate(1.17 0.115)" fill="#0f2e93"></path>
    </g>
    <g id="Сгруппировать_1242" data-name="Сгруппировать 1242" transform="translate(45.749 87.144)">
      <path id="Контур_1501" data-name="Контур 1501" d="M.638.063a1.65,1.65,0,0,0-1.5,0,.456.456,0,0,0,0,.864,1.66,1.66,0,0,0,1.5,0,.456.456,0,0,0,0-.864" transform="translate(1.17 0.116)" fill="#0f2e93"></path>
    </g>
  </g>
  <path id="Контур_1503" data-name="Контур 1503" d="M29.6-44.9h2.118v-5.515H29.6Z" transform="translate(16.152 138.17)" fill="#0f2e93"></path>
  <g id="Сгруппировать_1268" data-name="Сгруппировать 1268" transform="translate(0 0)" clip-path="url(#clip-path-6)">
    <g id="Сгруппировать_1244" data-name="Сгруппировать 1244" transform="translate(69.043 122.693)">
      <path id="Контур_1504" data-name="Контур 1504" d="M.083,0A7.3,7.3,0,0,0-.152,1.7c0,.85.221,3.632,1.742,4.2s3.227.3,3.227-.7S2.332,0,2.332,0Z" transform="translate(0.152 0)" fill="#1e78c1"></path>
    </g>
    <g id="Сгруппировать_1245" data-name="Сгруппировать 1245" transform="translate(78.652 115.569)">
      <path id="Контур_1505" data-name="Контур 1505" d="M.254,0a5.513,5.513,0,0,0-.72,2.11c0,.87,2.042,1.348,2.782,1.7s4.476,1.173,4.476.434S4.946,2.407,4,1.459A8.359,8.359,0,0,0,2.012,0Z" transform="translate(0.466 0)" fill="#1e78c1"></path>
    </g>
    <g id="Сгруппировать_1246" data-name="Сгруппировать 1246" transform="translate(68.385 110.985)">
      <path id="Контур_1506" data-name="Контур 1506" d="M.1,0a34.532,34.532,0,0,0,0,8.259C.7,11.346.7,12.867,1.443,12.867s1.912,0,1.912-1.087.485-6.868,1.176-8.65A17.847,17.847,0,0,0,5.453,0Z" transform="translate(0.175)" fill="#48b8e6"></path>
    </g>
    <g id="Сгруппировать_1247" data-name="Сгруппировать 1247" transform="translate(77.739 107.423)">
      <path id="Контур_1507" data-name="Контур 1507" d="M0,1.258s1.609,3.217,1.609,4.26S2.3,7.343,3.3,6.909,4.254,5.691,4.254,5,3.782-.829,3.782-1.566,3-2.305,3-2.305Z" transform="translate(0 2.305)" fill="#178fcf"></path>
    </g>
    <g id="Сгруппировать_1248" data-name="Сгруппировать 1248" transform="translate(63.25 71.092)">
      <path id="Контур_1508" data-name="Контур 1508" d="M2.153.417S.652-.959-.694-.74c-2.64.428-4.973,4.849-1.509,9s4.048,4.582,4.048,5.13,1.584,1.25,1.966.357a14.236,14.236,0,0,0,.971-3.765c0-.829-.971-5.167-.971-5.614A35.173,35.173,0,0,0,2.153.417" transform="translate(3.946 0.763)" fill="#1e78c1"></path>
    </g>
    <g id="Сгруппировать_1249" data-name="Сгруппировать 1249" transform="translate(77.739 82.288)">
      <path id="Контур_1509" data-name="Контур 1509" d="M0,.051S5.52,1.729,6.348,1.729,7.562.89,8.2.89s2.554-.691,2.554.394-2.107,4.529-3,4.529S1.6,5.271.989,4.665A6.956,6.956,0,0,1,0,2.113V-.093" transform="translate(0 0.093)" fill="#48b8e6"></path>
    </g>
    <g id="Сгруппировать_1250" data-name="Сгруппировать 1250" transform="translate(66.032 82.373)">
      <path id="Контур_1510" data-name="Контур 1510" d="M.369,1.526A4.871,4.871,0,0,1,2.705-.784c1.785-.892,8.549-3.125,9.123-1.339s1.787,13.179,2.489,15.3,1.77,9.954,0,11.724S6.724,27.865,4.3,27.418-.677,25.061-.677,24.07.28,14.593.28,14.02s.447-4.084.447-4.53S.369,1.526.369,1.526" transform="translate(0.677 2.796)" fill="#1e78c1"></path>
    </g>
    <g id="Сгруппировать_1251" data-name="Сгруппировать 1251" transform="translate(102.406 147.297)">
      <path id="Контур_1511" data-name="Контур 1511" d="M1.822,0A6.266,6.266,0,0,1-.744.957c-1.071,0-3.24,1.085-2.411,1.914S.482,4.4,1.121,4.4s3.594,1.014,4.224.383.359-3.662,0-4.02S1.822,0,1.822,0" transform="translate(3.339)" fill="#1e78c1"></path>
    </g>
    <g id="Сгруппировать_1252" data-name="Сгруппировать 1252" transform="translate(115.959 140.917)">
      <path id="Контур_1512" data-name="Контур 1512" d="M.754,0s-2.473.51-2.1,1.659S1.881,6.764,3.136,6.764,4.357,5.679,4.357,5.232A11.32,11.32,0,0,0,2.733,1.85C2.254,1.373.754,0,.754,0" transform="translate(1.382)" fill="#1e78c1"></path>
    </g>
    <g id="Сгруппировать_1253" data-name="Сгруппировать 1253" transform="translate(111.092 92.24)">
      <path id="Контур_1513" data-name="Контур 1513" d="M3.464,6A6.865,6.865,0,0,0,2.252,3.672c-.734-.734-6.11-9.35-6.11-9.97s-.015-5.534-1.546-4.577c-.875.547-1.215,4.116-.7,4.977s2.563,3.125,2.563,4.274a19.921,19.921,0,0,0,2.142,6,32.147,32.147,0,0,1,2,2.935Z" transform="translate(6.347 10.998)" fill="#178fcf"></path>
    </g>
    <g id="Сгруппировать_1254" data-name="Сгруппировать 1254" transform="translate(107.313 124.393)">
      <path id="Контур_1514" data-name="Контур 1514" d="M.676.36S-1.238,9.485-1.238,13.185V23.393a9,9,0,0,0,2.875.682,1.235,1.235,0,0,0,1.272-1.255S3.228,13.5,4.121,11.462A23.609,23.609,0,0,1,6.865,6.8c.351-.351,3.955-1.659,4.722-3.19s0-4.274,0-4.274Z" transform="translate(1.238 0.66)" fill="#48b8e6"></path>
    </g>
    <g id="Сгруппировать_1255" data-name="Сгруппировать 1255" transform="translate(115.16 123.371)">
      <path id="Контур_1515" data-name="Контур 1515" d="M0,2.658s1.85,9.059,2.552,10.975,1.51,3.892,2.765,3.509S6.733,7.315,6.365,5.975,5.319-2.126,5.2-2.77a7.982,7.982,0,0,0-1.436-2.1H2.36Z" transform="translate(0 4.871)" fill="#48b8e6"></path>
    </g>
    <g id="Сгруппировать_1256" data-name="Сгруппировать 1256" transform="translate(110.188 96.774)">
      <path id="Контур_1516" data-name="Контур 1516" d="M.877,4.029S-2.058,2.051-1.548-.245a15.454,15.454,0,0,0,.512-3.574C-1.036-4.2.431-8.284,3.939-7.2s6.827,3,5.487,7.082S6.365,4.6,4.7,4.6A18.271,18.271,0,0,1,.877,4.029" transform="translate(1.608 7.383)" fill="#48b8e6"></path>
    </g>
    <g id="Сгруппировать_1257" data-name="Сгруппировать 1257" transform="translate(112.991 106.91)">
      <path id="Контур_1517" data-name="Контур 1517" d="M0,.18S.159,3.338.638,3.817s2.227.51,2.227.51L5.934,2.669l-.447-3Z" transform="translate(0 0.33)" fill="#48b8e6"></path>
    </g>
    <g id="Сгруппировать_1258" data-name="Сгруппировать 1258" transform="translate(108.199 108.46)">
      <path id="Контур_1518" data-name="Контур 1518" d="M.16,6.323S-.86-6.692.16-7.714s4.4-2.424,6.126-3,6.747-1.85,6.747.447-.56,10.783-.56,11.74.543,2.9-.318,3.764S3.414,7.216,2.074,7.216A2.29,2.29,0,0,1,.16,6.323" transform="translate(0.293 11.587)" fill="#1e78c1"></path>
    </g>
    <g id="Сгруппировать_1259" data-name="Сгруппировать 1259" transform="translate(97.615 103.975)">
      <path id="Контур_1519" data-name="Контур 1519" d="M1.306,2.681S9.224,2.623,9.8,2.623,13.3,3.7,12.089,5.871s-7.529,1.34-9.443.7a22.192,22.192,0,0,1-3.892-1.85S-2.394-1.467-2.394-2.87a5.789,5.789,0,0,1,.048-.777c.119-.864.454-1.264.909-1.264.575,0,2.36,5.679,2.36,6.093a7.477,7.477,0,0,0,.383,1.5" transform="translate(2.394 4.912)" fill="#48b8e6"></path>
    </g>
    <g id="Сгруппировать_1260" data-name="Сгруппировать 1260" transform="translate(94.104 98.345)">
      <path id="Контур_1520" data-name="Контур 1520" d="M.338,1.2C-.109.753-.841-1.832-.555-2.119S2-1.927,2.89-.459A7.668,7.668,0,0,1,4.167,2.795V4.9H2.915Z" transform="translate(0.62 2.198)" fill="#48b8e6"></path>
    </g>
    <g id="Сгруппировать_1261" data-name="Сгруппировать 1261" transform="translate(64.993 86.05)">
      <path id="Контур_1521" data-name="Контур 1521" d="M.736.228S2.14-1.171,3.2.152C5.241,2.7,2.083,7.363,2.083,7.363L4.922,6.278s2.487.255,1.659,1.085S1.33,11.751.518,11.573c-1.745-.382-2.3-4.339-1.53-6.763A45.611,45.611,0,0,1,.736.228" transform="translate(1.349 0.417)" fill="#48b8e6"></path>
    </g>
    <g id="Сгруппировать_1262" data-name="Сгруппировать 1262" transform="translate(71.009 89.019)">
      <path id="Контур_1522" data-name="Контур 1522" d="M0,1.657a15.057,15.057,0,0,1,1.723-3.2c.765-.836,3-2.37,3-.836A5.319,5.319,0,0,1,3.509.962c-.478.522-2.009.731-2.424,1.184S0,1.657,0,1.657" transform="translate(0 3.037)" fill="#48b8e6"></path>
    </g>
    <g id="Сгруппировать_1263" data-name="Сгруппировать 1263" transform="translate(85.582 80.532)">
      <path id="Контур_1523" data-name="Контур 1523" d="M0,1A5.75,5.75,0,0,1,.931-.654c.51-.51.7-1.175,1.275-1.175s3.765-.037,3.765.665S5.843,1,5.078,1A19.214,19.214,0,0,1,2.909,1.3,19.319,19.319,0,0,1,0,1" transform="translate(0 1.829)" fill="#48b8e6"></path>
    </g>
    <g id="Сгруппировать_1264" data-name="Сгруппировать 1264" transform="translate(67.815 72.272)">
      <path id="Контур_1524" data-name="Контур 1524" d="M1.228,3.232S2.858,6.089,5.665,5.47s3.38-3.17,3-5.212S7.6-5.286,5.665-5.7C3.946-6.059-.63-6.481-1.8-2.677-2.871.8-1.758,1.761-1.29,2.336c.493.609,2.232.41,2.232.41" transform="translate(2.251 5.923)" fill="#48b8e6"></path>
    </g>
    <g id="Сгруппировать_1265" data-name="Сгруппировать 1265" transform="translate(66.503 70.542)">
      <path id="Контур_1525" data-name="Контур 1525" d="M.728,3.45s-.648-1.085,0-1.734A4.315,4.315,0,0,1,3.172.632,8.014,8.014,0,0,0,6.936-1.026,11.74,11.74,0,0,1,9.619-2.784,15.978,15.978,0,0,0,8.148-5.078C6.959-6.266,2.917-7.347.441-4.592c-1.969,2.19-2.1,6.353-1.353,7.1a3.632,3.632,0,0,0,1.64.938" transform="translate(1.334 6.322)" fill="#1e78c1"></path>
    </g>
    <g id="Сгруппировать_1266" data-name="Сгруппировать 1266" transform="translate(70.753 80.532)">
      <path id="Контур_1526" data-name="Контур 1526" d="M.2,0-.372,4.428A2.192,2.192,0,0,0,2.2,5.493c2.026-.3,2.92-1.284,2.92-1.894V1.757Z" transform="translate(0.372)" fill="#48b8e6"></path>
    </g>
    <g id="Сгруппировать_1267" data-name="Сгруппировать 1267" transform="translate(93.819 77.021)">
      <path id="Контур_1527" data-name="Контур 1527" d="M4.239,2.12a6,6,0,0,1-6,6,6,6,0,0,1-6-6,6,6,0,0,1,6-6,6,6,0,0,1,6,6" transform="translate(7.768 3.884)" fill="#0f2e93"></path>
    </g>
  </g>
</svg>
