<?xml version="1.0" encoding="UTF-8"?>
<svg xmlns="http://www.w3.org/2000/svg" xmlns:xlink="http://www.w3.org/1999/xlink" id="Сгруппировать_2172" data-name="Сгруппировать 2172" width="146.91" height="153.779" viewBox="0 0 146.91 153.779">
  <defs>
    <clipPath id="clip-path">
      <path id="Контур_1704" data-name="Контур 1704" d="M0-22.228A73.455,73.455,0,0,0,73.454,51.228h0A73.455,73.455,0,0,0,146.91-22.228h0A73.455,73.455,0,0,0,73.454-95.682h0A73.454,73.454,0,0,0,0-22.228" transform="translate(0 95.682)" fill="none"></path>
    </clipPath>
    <linearGradient id="linear-gradient" x1="-0.201" y1="0.522" x2="1.364" y2="0.522" gradientUnits="objectBoundingBox">
      <stop offset="0" stop-color="#ff3832"></stop>
      <stop offset="0.1" stop-color="#df334a"></stop>
      <stop offset="0.2" stop-color="#ba2f60"></stop>
      <stop offset="0.3" stop-color="#942c74"></stop>
      <stop offset="0.4" stop-color="#6d2987"></stop>
      <stop offset="0.5" stop-color="#482b97"></stop>
      <stop offset="0.6" stop-color="#3546a5"></stop>
      <stop offset="0.7" stop-color="#205fb3"></stop>
      <stop offset="0.8" stop-color="#0b77c1"></stop>
      <stop offset="0.9" stop-color="#008cd0"></stop>
      <stop offset="1" stop-color="#0096d8"></stop>
    </linearGradient>
    <clipPath id="clip-path-2">
      <path id="Контур_1706" data-name="Контур 1706" d="M0,54.292H146.908V-99.487H0Z" transform="translate(0 99.487)" fill="none"></path>
    </clipPath>
    <clipPath id="clip-path-3">
      <path id="Контур_1709" data-name="Контур 1709" d="M28.648-98.844A8.149,8.149,0,0,0,20.5-90.695h0V44.8a8.15,8.15,0,0,0,8.149,8.151H95.887a8.149,8.149,0,0,0,8.149-8.151h0V-90.695a8.148,8.148,0,0,0-8.149-8.149H28.648Z" transform="translate(-20.499 98.844)" fill="none"></path>
    </clipPath>
  </defs>
  <g id="Сгруппировать_1481" data-name="Сгруппировать 1481" transform="translate(0 5.881)" clip-path="url(#clip-path)">
    <g id="Сгруппировать_1480" data-name="Сгруппировать 1480" transform="translate(55.684 -77.153) rotate(38)">
      <path id="Контур_1703" data-name="Контур 1703" d="M0,90.446,115.766,0l94.675,121.179L94.675,211.625Z" transform="translate(0 0)" fill="url(#linear-gradient)"></path>
    </g>
  </g>
  <g id="Сгруппировать_1483" data-name="Сгруппировать 1483" transform="translate(0 0)" clip-path="url(#clip-path-2)">
    <g id="Сгруппировать_1482" data-name="Сгруппировать 1482" transform="translate(31.685 0.993)">
      <path id="Контур_1705" data-name="Контур 1705" d="M2.878,0A8.151,8.151,0,0,0-5.273,8.151V143.644a8.151,8.151,0,0,0,8.151,8.151H70.115a8.151,8.151,0,0,0,8.151-8.151V8.151A8.151,8.151,0,0,0,70.115,0Z" transform="translate(5.273)" fill="#fff"></path>
    </g>
  </g>
  <g id="Сгруппировать_1484" data-name="Сгруппировать 1484" transform="translate(31.686 0.994)" clip-path="url(#clip-path-3)">
    <path id="Контур_1707" data-name="Контур 1707" d="M16.417-80.811h95.626v-21.75H16.417Z" transform="translate(-22.727 96.816)" fill="#ff3832"></path>
    <path id="Контур_1708" data-name="Контур 1708" d="M16.417,11.987h95.626V-9.763H16.417Z" transform="translate(-22.727 147.457)" fill="#ff3832"></path>
  </g>
  <g id="Сгруппировать_1486" data-name="Сгруппировать 1486" transform="translate(0 0)" clip-path="url(#clip-path-2)">
    <g id="Сгруппировать_1485" data-name="Сгруппировать 1485" transform="translate(31.685 0.993)">
      <path id="Контур_1710" data-name="Контур 1710" d="M2.878,0A8.151,8.151,0,0,0-5.273,8.151V143.644a8.151,8.151,0,0,0,8.151,8.151H70.115a8.151,8.151,0,0,0,8.151-8.151V8.151A8.151,8.151,0,0,0,70.115,0Z" transform="translate(5.273)" fill="none" stroke="#ff3832" stroke-width="1.284"></path>
    </g>
  </g>
  <path id="Контур_1712" data-name="Контур 1712" d="M38.155-91.7H67.109v-2.093H38.155Z" transform="translate(20.822 102.597)" fill="#fff"></path>
  <path id="Контур_1713" data-name="Контур 1713" d="M43.619-4.7H55.683V-6.788H43.619Z" transform="translate(23.804 150.074)" fill="#fff"></path>
  <g id="Сгруппировать_1490" data-name="Сгруппировать 1490" transform="translate(0 0)" clip-path="url(#clip-path-2)">
    <g id="Сгруппировать_1487" data-name="Сгруппировать 1487" transform="translate(82.293 111.328)">
      <path id="Контур_1714" data-name="Контур 1714" d="M6.405.055-5.279,11.739-9.571,7.447a.533.533,0,0,0-.754,0L-11.582,8.7a.536.536,0,0,0,0,.754l5.926,5.926a.533.533,0,0,0,.754,0L8.415,2.065a.531.531,0,0,0,0-.753L7.16.055a.533.533,0,0,0-.754,0" transform="translate(11.738 0.101)" fill="#45b248"></path>
    </g>
    <g id="Сгруппировать_1488" data-name="Сгруппировать 1488" transform="translate(82.293 29.873)">
      <path id="Контур_1715" data-name="Контур 1715" d="M6.405.055-5.279,11.739-9.571,7.447a.533.533,0,0,0-.754,0L-11.582,8.7a.536.536,0,0,0,0,.754l5.926,5.926a.533.533,0,0,0,.754,0L8.415,2.065a.531.531,0,0,0,0-.753L7.16.055a.533.533,0,0,0-.754,0" transform="translate(11.738 0.101)" fill="#45b248"></path>
    </g>
    <g id="Сгруппировать_1489" data-name="Сгруппировать 1489" transform="translate(82.293 69.118)">
      <path id="Контур_1716" data-name="Контур 1716" d="M6.405.055-5.279,11.739-9.571,7.447a.533.533,0,0,0-.754,0L-11.582,8.7a.536.536,0,0,0,0,.754l5.926,5.926a.533.533,0,0,0,.754,0L8.415,2.065a.531.531,0,0,0,0-.753L7.16.055a.533.533,0,0,0-.754,0" transform="translate(11.738 0.101)" fill="#45b248"></path>
    </g>
  </g>
  <g id="Сгруппировать_1491" data-name="Сгруппировать 1491" transform="translate(38.744 56.665)">
    <path id="Контур_1718" data-name="Контур 1718" d="M0,0H69.42" fill="none" stroke="#d8d8da" stroke-width="0.796"></path>
  </g>
  <g id="Сгруппировать_1492" data-name="Сгруппировать 1492" transform="translate(38.744 97.381)">
    <path id="Контур_1719" data-name="Контур 1719" d="M0,0H69.42" fill="none" stroke="#d8d8da" stroke-width="0.796"></path>
  </g>
  <g id="Сгруппировать_1496" data-name="Сгруппировать 1496" transform="translate(0 0)" clip-path="url(#clip-path-2)">
    <g id="Сгруппировать_1493" data-name="Сгруппировать 1493" transform="translate(46.839 60.72)">
      <path id="Контур_1720" data-name="Контур 1720" d="M1.813,7.773a3.393,3.393,0,1,0,4.8,0,3.393,3.393,0,0,0-4.8,0m3.6,3.6a1.7,1.7,0,1,1,0-2.4,1.7,1.7,0,0,1,0,2.4m.011-25.614H3a2.124,2.124,0,0,0-1.308.543,2.138,2.138,0,0,0-.543,1.308l0,3.789a2.437,2.437,0,0,0,.213.91l1.6,3.2c0,.026-.031.043-.029.068V-.928A6.214,6.214,0,0,0,.293-.072,7.361,7.361,0,0,0-.8.791,4.694,4.694,0,0,0-2.249,4.122a5.174,5.174,0,0,0,.5,2.014,2.683,2.683,0,0,1-.289,2.872,5.309,5.309,0,0,0-1.28,3.411c0,3.418,3.377,6.183,7.535,6.183a8.248,8.248,0,0,0,5.829-2.264,5.525,5.525,0,0,0,1.706-3.917A5.314,5.314,0,0,0,10.464,9a2.689,2.689,0,0,1-.289-2.87,5.194,5.194,0,0,0,.5-2.013A5.007,5.007,0,0,0,8.132-.07,6.2,6.2,0,0,0,5.486-.93V-4.42c0-.028-.026-.043-.029-.07l1.6-3.2A2.425,2.425,0,0,0,7.272-8.6v-3.787A2.125,2.125,0,0,0,6.73-13.7a2.129,2.129,0,0,0-1.308-.543M8.974,4.12a3.191,3.191,0,0,1-.311,1.243,4.376,4.376,0,0,0,.492,4.721,3.686,3.686,0,0,1,.9,2.337,3.86,3.86,0,0,1-1.209,2.717A6.546,6.546,0,0,1,4.213,16.9a6.558,6.558,0,0,1-4.636-1.77,3.85,3.85,0,0,1-1.2-2.72A3.669,3.669,0,0,1-.734,10.09a4.38,4.38,0,0,0,.49-4.728,3.167,3.167,0,0,1-.309-1.24A3.032,3.032,0,0,1,.4,1.99a5.305,5.305,0,0,1,.79-.623A4.479,4.479,0,0,1,2.941.786V4.738a.734.734,0,0,0,.187.451.716.716,0,0,0,.45.185H4.853A.723.723,0,0,0,5.3,5.19a.741.741,0,0,0,.185-.451V.786a4.473,4.473,0,0,1,1.747.581A3.335,3.335,0,0,1,8.974,4.12m-3.4-16.511V-8.6a.383.383,0,0,1-.036.155L4.212-5.8,2.884-8.453a.4.4,0,0,1-.036-.153v-3.789a.164.164,0,0,1,.043-.107l0,0v0A.176.176,0,0,1,3-12.547H5.421a.179.179,0,0,1,.11.045.187.187,0,0,1,.045.111" transform="translate(3.322 14.243)" fill="#afb0b3"></path>
    </g>
    <g id="Сгруппировать_1494" data-name="Сгруппировать 1494" transform="translate(47.354 103.383)">
      <path id="Контур_1721" data-name="Контур 1721" d="M3.755.064A1.262,1.262,0,0,0,2.484.045a1.277,1.277,0,0,0-.648,1.107v4.2L.139,6.564l-1.7-1.212v-4.2A1.262,1.262,0,0,0-2.2.05,1.271,1.271,0,0,0-3.481.069a6.979,6.979,0,0,0-3.4,6.014A6.975,6.975,0,0,0-3.393,12.11l0,12.712A3.539,3.539,0,0,0,.139,28.354a3.51,3.51,0,0,0,2.5-1.036,3.5,3.5,0,0,0,1.034-2.5l0-12.7A7,7,0,0,0,3.755.064M5.673,6.083A5.5,5.5,0,0,1,2.6,11.014l-.411.206,0,13.6A2.094,2.094,0,0,1,.139,26.867a2.05,2.05,0,0,1-2.045-2.045V11.21L-2.314,11A5.513,5.513,0,0,1-5.393,6.083a5.489,5.489,0,0,1,1.608-3.9,5.53,5.53,0,0,1,.74-.621l0,4.558L.139,8.392,3.325,6.117l0-4.558A5.485,5.485,0,0,1,5.673,6.083M-.385,24.029a.744.744,0,1,0,1.053,0,.744.744,0,0,0-1.053,0" transform="translate(6.88 0.117)" fill="#afb0b3"></path>
    </g>
    <g id="Сгруппировать_1495" data-name="Сгруппировать 1495" transform="translate(40.992 26.517)">
      <path id="Контур_1722" data-name="Контур 1722" d="M9.449,4.163a.848.848,0,0,0-.235-.543L6.492,1.237V-5.4a.744.744,0,0,0-.743-.743H1.284A.745.745,0,0,0,.541-5.4v1.43L-3.433-7.445a.857.857,0,0,0-.49-.184.857.857,0,0,0-.488.184L-17.059,3.621a.846.846,0,0,0-.255.56.744.744,0,0,0,.745.743.857.857,0,0,0,.49-.184l1.74-1.526V13.943a2.235,2.235,0,0,0,2.232,2.23H4.26a2.234,2.234,0,0,0,2.232-2.23V3.214L8.234,4.74a.863.863,0,0,0,.471.167.744.744,0,0,0,.743-.743M5-.064l-2.976-2.6V-4.655H5ZM5,13.943a.745.745,0,0,1-.745.743H-12.106a.745.745,0,0,1-.743-.743V1.913L-3.923-5.9,5,1.913Z" transform="translate(17.314 7.629)" fill="#afb0b3"></path>
    </g>
  </g>
  <path id="Контур_1724" data-name="Контур 1724" d="M33.558-64.663h5.007V-73.3H33.558Z" transform="translate(18.313 113.779)" fill="#afb0b3"></path>
</svg>
